<?xml version="1.0" encoding="UTF-8"?>
<!DOCTYPE svg PUBLIC "-//W3C//DTD SVG 1.1//EN" "http://www.w3.org/Graphics/SVG/1.1/DTD/svg11.dtd">
<!-- Creator: CorelDRAW X7 -->
<svg xmlns="http://www.w3.org/2000/svg" xml:space="preserve" width="8.5in" height="11in" version="1.1" style="shape-rendering:geometricPrecision; text-rendering:geometricPrecision; image-rendering:optimizeQuality; fill-rule:evenodd; clip-rule:evenodd"
viewBox="0 0 8500 11000"
 xmlns:xlink="http://www.w3.org/1999/xlink">
 <defs>
  <style type="text/css">
   <![CDATA[
    .str1 {stroke:#373435;stroke-width:41.6654}
    .str0 {stroke:#373435;stroke-width:6.94488}
    .fil0 {fill:none}
   ]]>
  </style>
 </defs>
 <g id="Layer_x0020_1">
  <metadata id="CorelCorpID_0Corel-Layer"/>
  <rect class="fil0 str0" x="28446" y="-15112" width="3108" height="2223"/>
  <polygon class="fil0 str1" points="945,706 1325,706 1325,1078 1940,1081 1940,706 2523,706 2523,1081 3113,1079 3106,706 3700,706 3702,1078 4290,1078 4293,706 4887,706 4889,1078 5470,1078 5470,706 6074,706 6074,1081 6473,1078 6473,706 6851,706 6851,1692 6473,1692 6473,2283 6851,2283 6851,2871 6473,2874 6478,3465 6851,3465 6851,4059 6476,4059 6478,4644 6851,4644 6851,5627 6475,5627 6477,5252 6067,5252 6067,5627 5476,5627 5476,5255 4888,5255 4885,5627 4295,5627 4297,5258 3701,5258 3701,5627 3113,5627 3113,5260 2519,5260 2519,5627 1931,5627 1931,5252 1318,5252 1318,5627 945,5627 945,4637 1318,4637 1318,4044 945,4044 945,3461 1320,3461 1320,2878 945,2878 945,2284 1315,2284 1315,1691 945,1691 "/>
  <polygon class="fil0 str1" points="657,6309 656,5925 1269,5925 1271,6309 1860,6309 1860,5925 2451,5925 2453,6311 3041,6311 3041,5925 3632,5925 3632,6306 4223,6306 4223,5925 4817,5925 4817,6311 5408,6311 5408,5925 5818,5925 5815,6303 6230,6303 6230,7520 5815,7522 5815,7894 5405,7894 5405,7516 4814,7516 4814,7894 4226,7894 4226,7519 3632,7519 3632,7894 3041,7894 3041,7519 2453,7519 2453,7894 1861,7894 1862,7519 1274,7519 1273,7894 658,7894 662,7514 325,7514 325,6309 "/>
  <polygon class="fil0 str1" points="6821,6867 6822,5895 7228,5895 7228,6262 7622,6268 7622,5895 8039,5895 8039,6875 8414,6877 8414,7470 8037,7470 8037,8058 8414,8059 8414,8653 8039,8654 8039,9245 8414,9246 8414,9840 8037,9841 8040,10817 8040,10817 7627,10817 7627,10444 7228,10450 7239,10817 6820,10817 6818,9840 6446,9837 6446,9233 6820,9230 6818,8650 6446,8650 6446,8057 6818,8057 6818,7485 6446,7485 6446,6869 "/>
 </g>
</svg>
