<?xml version="1.0" encoding="UTF-8" standalone="no"?>
<svg
   xmlns:dc="http://purl.org/dc/elements/1.1/"
   xmlns:cc="http://creativecommons.org/ns#"
   xmlns:rdf="http://www.w3.org/1999/02/22-rdf-syntax-ns#"
   xmlns:svg="http://www.w3.org/2000/svg"
   xmlns="http://www.w3.org/2000/svg"
   xmlns:sodipodi="http://sodipodi.sourceforge.net/DTD/sodipodi-0.dtd"
   xmlns:inkscape="http://www.inkscape.org/namespaces/inkscape"
   version="1.1"
   width="790.86609"
   height="612.28351"
   id="svg2"
   inkscape:version="0.91 r13725"
   viewBox="0 0 790.86609 612.28351"
   sodipodi:docname="Pressfit Final44.cdr.svg"
   inkscape:export-filename="/media/martin/Fab Stores1/Njau/Pressfit Final45"
   inkscape:export-xdpi="90"
   inkscape:export-ydpi="90">
  <metadata
     id="metadata93">
    <rdf:RDF>
      <cc:Work
         rdf:about="">
        <dc:format>image/svg+xml</dc:format>
        <dc:type
           rdf:resource="http://purl.org/dc/dcmitype/StillImage" />
        <dc:title></dc:title>
      </cc:Work>
    </rdf:RDF>
  </metadata>
  <defs
     id="defs91" />
  <sodipodi:namedview
     pagecolor="#ffffff"
     bordercolor="#666666"
     borderopacity="1"
     objecttolerance="10"
     gridtolerance="10"
     guidetolerance="10"
     inkscape:pageopacity="0"
     inkscape:pageshadow="2"
     inkscape:window-width="1533"
     inkscape:window-height="876"
     id="namedview89"
     showgrid="false"
     inkscape:zoom="0.37553766"
     inkscape:cx="395.43304"
     inkscape:cy="306.14175"
     inkscape:window-x="67"
     inkscape:window-y="24"
     inkscape:window-maximized="1"
     inkscape:current-layer="svg2" />
  <path
     d="m 40.8348,103.7957 0,508.488 720,0 0,-508.488 -720,0 z"
     style="fill:none;stroke:#102a83;stroke-width:4;stroke-linecap:butt;stroke-linejoin:miter;stroke-dasharray:none"
     id="path4"
     inkscape:connector-curvature="0" />
  <g
     id="Layer1000">
    <path
       d="m 961.3848,60.1413 0.4964,-28.5432 28.5431,0 -0.3755,28.5432 13.896,0.7511 0.3755,-29.2943 28.1676,0 0.1202,28.1676 28.1679,0.7512 0,27.7922 -28.1679,0 3e-4,14.6472 28.1676,0 0,28.1676 -28.5432,-0.5102 0.2551,28.5434 -28.1676,0 -0.3755,-28.1678 -13.896,-1.1268 0,29.2946 -28.5432,0 -0.872,-28.1678 -27.4167,0.1346 0,-28.1676 27.7923,0 0.7512,-14.6472 -28.5435,0 0,-27.7925 28.1679,-0.3753 z"
       style="fill:none;stroke:#1b1918;stroke-width:0.21600001;stroke-linecap:butt;stroke-linejoin:miter;stroke-dasharray:none"
       id="path7"
       inkscape:connector-curvature="0" />
    <path
       d="m 835.2995,-14.9706 21.6099,18.75 -9.3469,27.3912 13.8617,8.6088 9.2695,-29.6376 21.6176,11.1155 C 858.894,92.003 859.1831,130.8447 892.95,205.5906 l -22.5326,10.2149 -7.4931,-30.5699 -14.258,6.7501 8.2428,29.9999 -24.6095,10.5001 c -49.532,-61.1076 -45.9295,-162.3498 2.9999,-247.4563 z"
       style="fill:none;stroke:#1b1918;stroke-width:0.21600001;stroke-linecap:butt;stroke-linejoin:miter;stroke-dasharray:none"
       id="path9"
       inkscape:connector-curvature="0" />
    <path
       d="m 1147.7034,-14.91 -21.4437,18.7501 9.2751,27.3912 -13.7551,8.6088 -9.1983,-29.6376 -21.4513,11.1155 c 33.1604,70.7456 32.8735,109.5874 -0.6337,184.3333 l 22.3593,10.2149 7.4355,-30.5699 14.1483,6.7501 -8.1795,29.9999 24.4203,10.5001 c 49.151,-61.1076 45.5762,-162.3498 -2.9769,-247.4564 z"
       style="fill:none;stroke:#1b1918;stroke-width:0.21600001;stroke-linecap:butt;stroke-linejoin:miter;stroke-dasharray:none"
       id="path11"
       inkscape:connector-curvature="0" />
    <path
       d="m 862.9747,-38.9168 18.6112,21.5643 27.4505,-9.0979 8.5198,13.8104 -29.6964,9.0066 10.9767,21.5227 c 70.9583,-32.7028 109.7974,-32.165 184.3254,1.8241 l 10.3591,-22.2928 -30.5213,-7.6328 6.8414,-14.1044 29.9464,8.373 10.6576,-24.3519 c -60.7889,-49.5447 -162.0521,-46.6237 -247.4704,1.3787 z"
       style="fill:none;stroke:#1b1918;stroke-width:0.21600001;stroke-linecap:butt;stroke-linejoin:miter;stroke-dasharray:none"
       id="path13"
       inkscape:connector-curvature="0" />
    <path
       d="m 862.1745,264.4265 18.6112,-21.1778 27.4505,8.9349 8.5198,-13.5628 -29.6965,-8.8452 10.9768,-21.1368 c 70.9583,32.1165 109.7974,31.5884 184.3254,-1.7915 l 10.3591,21.8932 -30.5213,7.4959 6.8414,13.8516 29.9464,-8.2229 10.6576,23.9154 c -60.7889,48.6565 -162.0521,45.7879 -247.4704,-1.354 z"
       style="fill:none;stroke:#1b1918;stroke-width:0.21600001;stroke-linecap:butt;stroke-linejoin:miter;stroke-dasharray:none"
       id="path15"
       inkscape:connector-curvature="0" />
  </g>
  <text
     x="166.6171"
     y="144.83569"
     id="text17">
    <tspan
       font-size="24.0000"
       id="tspan19"
       style="font-size:24px;font-family:Arial;fill:#1b1918">My parametric Press fit Construction</tspan>
  </text>
  <text
     x="855.5896"
     y="742.3988"
     id="text21">
    <tspan
       font-size="12.0000"
       id="tspan23"
       style="font-size:12px;font-family:Arial;fill:#1b1918">The connector measures 45x45mm.</tspan>
  </text>
  <text
     x="-256.66211"
     y="557.69269"
     id="text25">
    <tspan
       font-size="12.0000"
       id="tspan27"
       style="font-size:12px;font-family:Arial;fill:#1b1918">Below are the laser cutter settings;</tspan>
  </text>
  <path
     d="m 835.882,-2.1492 0,340.1575 56.6929,0 0,-340.1575 -56.6929,0 z"
     style="fill:none;stroke:#1b1918;stroke-width:0.21600001;stroke-linecap:butt;stroke-linejoin:miter;stroke-dasharray:none"
     id="path29"
     inkscape:connector-curvature="0" />
  <text
     x="902.08771"
     y="176.0083"
     id="text31">
    <tspan
       font-size="82.5000"
       id="tspan33"
       style="font-size:82.5px;font-family:Arial;fill:#1b1918">B</tspan>
  </text>
  <g
     id="Layer1001">
    <path
       d="m 113.6115,399.6278 0.4963,-28.5432 28.5432,0 -0.3756,28.5432 13.896,0.7512 0.3756,-29.2944 28.1676,0 0.1202,28.1676 28.1678,0.7512 0,27.7923 -28.1678,0 3e-4,14.6471 28.1675,0 0,28.1676 -28.5431,-0.5102 0.2551,28.5435 -28.1676,0 -0.3756,-28.1679 -13.896,-1.1268 0,29.2947 -28.5432,0 -0.8719,-28.1679 -27.4167,0.1346 0,-28.1676 27.7923,0 0.7512,-14.6471 -28.5435,0 0,-27.7926 28.1679,-0.3753 z"
       style="fill:none;stroke:#1b1918;stroke-width:2.9999001;stroke-linecap:butt;stroke-linejoin:miter;stroke-dasharray:none"
       id="path36"
       inkscape:connector-curvature="0" />
    <text
       x="79.959999"
       y="452.89359"
       id="text38">
      <tspan
         font-size="24.0000"
         id="tspan40"
         style="font-size:24px;font-family:Artistik;fill:#102a83">Gearlab2016</tspan>
    </text>
    <text
       x="206.6329"
       y="504.095"
       id="text42">
      <tspan
         font-size="24.0000"
         id="tspan44"
         style="font-size:24px;font-family:Arial;fill:#009035">1</tspan>
    </text>
  </g>
  <path
     d="m 490.8348,499.7957 85.0393,0 0,9.6845 -14.131,3e-4 3e-4,7.5115 14.1307,-5e-4 0,11.1506 -85.0393,0 0,-11.5259 14.131,0 -3e-4,-7.0892 -14.1307,-0.0468 0,-9.6845 z"
     style="fill:none;stroke:#1b1918;stroke-width:2.9999001;stroke-linecap:butt;stroke-linejoin:miter;stroke-dasharray:none"
     id="path46"
     inkscape:connector-curvature="0" />
  <text
     x="508.83481"
     y="481.79568"
     id="text48">
    <tspan
       font-size="9.0000"
       id="tspan50"
       style="font-size:9px;font-family:Arial;fill:#1b1918">10x15mm</tspan>
  </text>
  <text
     x="535.17908"
     y="549.40112"
     id="text52">
    <tspan
       font-size="24.0000"
       id="tspan54"
       style="font-size:24px;font-family:Arial;fill:#009035">4</tspan>
  </text>
  <g
     id="Layer1002">
    <path
       d="m 257.9326,213.6421 70.8662,0 0,14.3762 -14.0624,-0.1873 0,14.4374 14.0624,-0.1877 0,133.1255 -13.6874,0.1873 -0.5627,15.3752 14.2501,0 0,134.8129 -14.4374,-0.375 0.5623,14.6247 13.8751,-0.1873 0,14.1556 -70.8662,0 0,-14.1556 14.0624,0 -0.1873,-14.2501 -13.8751,0 0,-134.6252 14.0627,0 -3e-4,-15.3749 -14.0624,-0.1876 0,-133.1255 14.0627,0 0.1874,-14.0624 -14.2501,-3e-4 0,-14.3759 z"
       style="fill:none;stroke:#1b1918;stroke-width:2.9999001;stroke-linecap:butt;stroke-linejoin:miter;stroke-dasharray:none"
       id="path57"
       inkscape:connector-curvature="0" />
    <text
       x="293.47879"
       y="193.79961"
       id="text59">
      <tspan
         font-size="24.0000"
         id="tspan61"
         style="font-size:24px;font-family:Arial;fill:#1b1918">2</tspan>
    </text>
    <text
       x="250.2139"
       y="589.79572"
       id="text63">
      <tspan
         font-size="24.0000"
         id="tspan65"
         style="font-size:24px;font-family:Arial;fill:#1b1918">120x25mm</tspan>
    </text>
  </g>
  <g
     id="Layer1003">
    <path
       d="m 393.4491,318.2462 28.9584,0 3e-4,28.5001 14.2658,0 -0.0156,-28.5001 27.6572,0 0,226.7717 -27.6576,0 -0.0315,-28.1254 -14.3568,-0.3747 0.326,28.5001 -29.1462,0 0,-226.7717 z"
       style="fill:none;stroke:#1b1918;stroke-width:2.9999001;stroke-linecap:butt;stroke-linejoin:miter;stroke-dasharray:none"
       id="path68"
       inkscape:connector-curvature="0" />
    <text
       x="387.95389"
       y="571.79572"
       id="text70">
      <tspan
         font-size="24.0000"
         id="tspan72"
         style="font-size:24px;font-family:Arial;fill:#1b1918">80x25mm</tspan>
    </text>
    <text
       x="420.978"
       y="306.2951"
       id="text74">
      <tspan
         font-size="24.0000"
         id="tspan76"
         style="font-size:24px;font-family:Arial;fill:#1b1918">3</tspan>
    </text>
  </g>
  <g
     id="Layer1004">
    <path
       d="m 632.4477,342.8439 34.0763,0 -0.4504,28.6874 17.3253,-0.1873 0,-28.5001 34.0882,0 0,198.4915 -14.0839,-0.0935 -0.0939,14.1774 14.1778,-0.0938 0,14.29 -85.0394,0 0,-14.29 14.1781,0 -0.1881,-14.0839 -13.99,-0.0939 0,-198.3038 z"
       style="fill:none;stroke:#1b1918;stroke-width:2.9999001;stroke-linecap:butt;stroke-linejoin:miter;stroke-dasharray:none"
       id="path79"
       inkscape:connector-curvature="0" />
    <text
       x="670.10712"
       y="324.8399"
       id="text81">
      <tspan
         font-size="24.0000"
         id="tspan83"
         style="font-size:24px;font-family:Arial;fill:#009035">5</tspan>
    </text>
    <text
       x="614.66632"
       y="594.8399"
       id="text85">
      <tspan
         font-size="24.0000"
         id="tspan87"
         style="font-size:24px;font-family:Arial;fill:#009035">50x20mm</tspan>
    </text>
  </g>
</svg>
